<svg viewBox="0 0 16 16" xmlns="http://www.w3.org/2000/svg"><path d="M8.432.178a.613.613 0 00-.864 0l-7.333 7a.818.818 0 00-.078 1.056.618.618 0 00.939.088l.683-.65V13.5c0 1.381.995 2.5 2.222 2.5h8c1.228 0 2.223-1.119 2.223-2.5V7.672l.68.65c.28.269.703.228.939-.088.236-.315.203-.79-.078-1.056l-7.333-7zM3.112 13.5V6.4l4.89-4.666L12.89 6.4v7.1c0 .553-.397 1-.889 1h-1.333V9.75c0-.69-.497-1.25-1.111-1.25H6.446c-.614 0-1.111.56-1.111 1.25v4.75H4c-.491 0-.888-.447-.888-1zm3.556 1V10h2.667v4.5H6.668z"/></svg>